<svg id="maybe_later" data-name="maybe later" xmlns="http://www.w3.org/2000/svg" width="21.656" height="22.355" viewBox="0 0 21.656 22.355">
  <path id="Path_22395" data-name="Path 22395" d="M222.6,100.8a1.4,1.4,0,1,0,0,2.794h13.272a1.4,1.4,0,1,0,0-2.794Z" transform="translate(-218.403 -100.8)" fill="#e7a29b"/>
  <path id="Path_22396" data-name="Path 22396" d="M395.486,347.147a2.1,2.1,0,0,0-1.938,1.3.171.171,0,0,1-.314,0,2.1,2.1,0,0,0-4.034.8c0,1.516,2.19,3.577,3.406,4.6a1.215,1.215,0,0,0,1.572,0c1.215-1.027,3.406-3.088,3.406-4.6a2.1,2.1,0,0,0-2.1-2.1Z" transform="translate(-375.926 -331.779)" fill="#e7a29b"/>
  <path id="Path_22397" data-name="Path 22397" d="M194.083,190.4H180.336a3.954,3.954,0,0,0-3.887,4.684l1.746,9.234a3.492,3.492,0,0,0,3.426,2.847h5.239a1.4,1.4,0,1,0,0-2.794h-5.239a.7.7,0,0,1-.7-.569l-1.746-9.231a1.16,1.16,0,0,1,1.16-1.376h13.747a1.16,1.16,0,0,1,1.16,1.16,1.183,1.183,0,0,1-.021.213L195,195.75a1.4,1.4,0,0,0,2.745.514l.224-1.187a3.954,3.954,0,0,0-3.884-4.68Z" transform="translate(-176.381 -184.808)" fill="#e7a29b"/>
</svg>
