<svg xmlns="http://www.w3.org/2000/svg" width="22.459" height="29.101" viewBox="0 0 22.459 29.101">
  <path id="Path_22560" data-name="Path 22560" d="M161.609,23.068l5.15-5.564a3.751,3.751,0,0,0,.71-4.025,3.584,3.584,0,0,0-3.2-2.309,4.508,4.508,0,0,0-3.492,1.362,4.36,4.36,0,0,0-3.493-1.421,3.78,3.78,0,0,0-3.2,2.309,3.826,3.826,0,0,0,.71,4.025l5.15,5.564a.817.817,0,0,0,.237.178v4.085a5.137,5.137,0,0,0-2.309-1.539,4.573,4.573,0,0,0-3.907.592L151.6,27.8a1.128,1.128,0,0,0-1.006-.651H146.75a.559.559,0,0,0-.592.592V38.518a.559.559,0,0,0,.592.592H150.6a1.032,1.032,0,0,0,1.006-.71,21.273,21.273,0,0,0,5.328,1.006h3.848a1.722,1.722,0,0,0,1.776-1.835,1.671,1.671,0,0,0-.237-.888,1.944,1.944,0,0,0,.888-1.48,1.736,1.736,0,0,0-.237-.947,1.767,1.767,0,0,0,.888-1.539,1.96,1.96,0,0,0-.237-.888,1.8,1.8,0,0,0,.77-1.539,1.71,1.71,0,0,0-1.776-1.776h-1.243V23.127c.059.06.178,0,.237-.058Zm-11.129,5.86v9.116h-3.138v-9.59h3.2v.474Zm12.135.888a.558.558,0,0,1,.592.592.573.573,0,0,1-.592.651h-2.842a.592.592,0,0,0,0,1.184h2.309a.648.648,0,0,1,.592.651.608.608,0,0,1-.592.651h-2.309a.592.592,0,0,0,0,1.184h1.657c.474,0,.533.414.592.592v.059a.608.608,0,0,1-.592.651h-1.657a.592.592,0,0,0,0,1.184h1.006a.613.613,0,0,1,.592.651.573.573,0,0,1-.592.651h-3.848c-1.894,0-2.9-.474-5.209-1.006V29.224l2.9-1.835a3.652,3.652,0,0,1,5.091,1.243H157.82a.592.592,0,0,0,0,1.184ZM160.78,22.18l-5.032-5.505a2.545,2.545,0,0,1-.474-2.782,2.418,2.418,0,0,1,2.131-1.6h.237a3.123,3.123,0,0,1,2.664,1.48.6.6,0,0,0,.474.3.527.527,0,0,0,.474-.3,3.253,3.253,0,0,1,2.9-1.48,2.355,2.355,0,0,1,2.131,1.6,2.639,2.639,0,0,1-.474,2.782Z" transform="translate(-145.759 -10.704)" fill="#77acb3" stroke="#77acb3" stroke-width="0.8"/>
</svg>
