<svg xmlns="http://www.w3.org/2000/svg" width="18.091" height="22.828" viewBox="0 0 18.091 22.828">
  <g id="add_notes" data-name="add notes" transform="translate(0.25 0.262)">
    <path id="Path_22570" data-name="Path 22570" d="M192.016,63.364h-.5v-.9a.858.858,0,0,0-1.717,0v.913h-2.289V62.46a.858.858,0,0,0-1.717,0v.913h-2.289V62.46a.858.858,0,0,0-1.717,0v.913h-.5a3.433,3.433,0,0,0-3.433,3.433V80.485a3.433,3.433,0,0,0,3.433,3.433h10.724a3.433,3.433,0,0,0,3.433-3.433V66.8a3.433,3.433,0,0,0-3.433-3.433Zm1.717,17.13h0a1.717,1.717,0,0,1-1.717,1.717H181.292a1.717,1.717,0,0,1-1.717-1.717V66.8a1.717,1.717,0,0,1,1.717-1.717h.5v.984a.858.858,0,0,0,1.717,0v-.984H185.8v.984a.858.858,0,0,0,1.717,0v-.984H189.8v.984a.858.858,0,0,0,1.717,0v-.984h.5a1.717,1.717,0,0,1,1.717,1.717Z" transform="translate(-177.859 -61.602)" fill="#24a7ff" stroke="#24a7ff" stroke-width="0.5"/>
    <path id="Path_22571" data-name="Path 22571" d="M257.384,324.8h-8.727a.858.858,0,1,0,0,1.717h8.726a.858.858,0,1,0,0-1.717Z" transform="translate(-244.227 -311.352)" fill="#24a7ff" stroke="#24a7ff" stroke-width="0.5"/>
    <path id="Path_22572" data-name="Path 22572" d="M279.677,250.135h5.556a.858.858,0,1,0,0-1.717h-5.556a.858.858,0,1,0,0,1.717Z" transform="translate(-273.661 -238.873)" fill="#24a7ff" stroke="#24a7ff" stroke-width="0.5"/>
  </g>
</svg>
