<svg xmlns="http://www.w3.org/2000/svg" width="16.689" height="18.588" viewBox="0 0 16.689 18.588">
  <g id="Component_47_13" data-name="Component 47 – 13" transform="translate(0.75 0.75)">
    <g id="Component_46_1" data-name="Component 46 – 1">
      <g id="Group_13560" data-name="Group 13560" transform="translate(-370.432 -57.147)">
        <path id="Dashboard___Bonzo-23" data-name="Dashboard _ Bonzo-23" d="M14.442,16.29h4.747l-1.334-1.334a1.929,1.929,0,0,1-.565-1.364v-3a5.7,5.7,0,0,0-3.8-5.372V4.9a1.9,1.9,0,0,0-3.8,0v.324a5.7,5.7,0,0,0-3.8,5.372v3a1.929,1.929,0,0,1-.565,1.363L4,16.29H8.747m5.7,0v.949a2.848,2.848,0,0,1-5.7,0V16.29m5.7,0h-5.7" transform="translate(366.432 54.147)" fill="none" stroke="#404040" stroke-linecap="round" stroke-linejoin="round" stroke-width="1.5"/>
      </g>
    </g>
  </g>
</svg>
