<svg id="icn_surfing" xmlns="http://www.w3.org/2000/svg" width="25.087" height="21.95" viewBox="0 0 25.087 21.95">
  <path id="Path_22375" data-name="Path 22375" d="M96.437,68.86a2.915,2.915,0,0,1-2.084-.87l-6.066-6.04A1.138,1.138,0,0,1,89.9,60.341l6.066,6.04a.668.668,0,0,0,.949,0l8.176-8.176.053-.053a5.16,5.16,0,0,0,1.53-3.719,5.317,5.317,0,0,0-1.53-3.719,5.221,5.221,0,0,0-7.411,0l-.053.053-.448.448a1.053,1.053,0,0,1-.791.343,1.258,1.258,0,0,1-.818-.343l-.5-.5a5.236,5.236,0,0,0-8.545,5.7h4.194L92.507,53.4a1.177,1.177,0,0,1,.976-.58,1.09,1.09,0,0,1,.976.58l3.112,5.433,1.055-1.846a1.177,1.177,0,0,1,.976-.58h2.136a1.134,1.134,0,0,1,0,2.268H100.26l-1.714,3.007a1.177,1.177,0,0,1-.976.58,1.09,1.09,0,0,1-.976-.58l-3.112-5.407-1.055,1.846a1.177,1.177,0,0,1-.976.58H85.86a1.131,1.131,0,0,1-1-.58,7.534,7.534,0,0,1,11.578-9.31,7.554,7.554,0,0,1,10.339.29,7.514,7.514,0,0,1,.053,10.6l-.053.053L98.52,67.989a2.915,2.915,0,0,1-2.084.87Z" transform="translate(-83.904 -46.91)" fill="#738ad4"/>
</svg>
