<svg id="Group_163622" data-name="Group 163622" xmlns="http://www.w3.org/2000/svg" width="18.455" height="24.096" viewBox="0 0 18.455 24.096">
  <g id="Group_163431" data-name="Group 163431">
    <path id="Path_22393" data-name="Path 22393" d="M268.156,242.192l-2.915,3.126-1.726-1.544a1.056,1.056,0,1,0-1.4,1.579l2.494,2.231h0a1.052,1.052,0,0,0,1.471-.066l3.618-3.891a1.053,1.053,0,1,0-1.539-1.437Z" transform="translate(-256.676 -231.599)" fill="#d4a373"/>
    <path id="Path_22394" data-name="Path 22394" d="M168.9,26.442h-.666v-.224a1.052,1.052,0,0,0-1.052-1.052h-.979a3.044,3.044,0,0,0-2.671-1.592h-1.405a3.044,3.044,0,0,0-2.668,1.595h-.982a1.052,1.052,0,0,0-1.052,1.052v.224h-.666a3.157,3.157,0,0,0-3.157,3.157v14.91a3.157,3.157,0,0,0,3.157,3.158H168.9a3.157,3.157,0,0,0,3.157-3.158V29.6a3.157,3.157,0,0,0-3.157-3.157Zm-9.369.831h.652a1.052,1.052,0,0,0,1.034-.86.932.932,0,0,1,.91-.745h1.405a.932.932,0,0,1,.91.745,1.052,1.052,0,0,0,1.034.852h.652v.555h-6.6Zm10.422,17.239a1.053,1.053,0,0,1-1.053,1.053h-12.14a1.053,1.053,0,0,1-1.053-1.053V29.6a1.053,1.053,0,0,1,1.053-1.053h.668v.334a1.053,1.053,0,0,0,1.053,1.053h8.7a1.052,1.052,0,0,0,1.052-1.053v-.334h.668A1.053,1.053,0,0,1,169.96,29.6Z" transform="translate(-153.607 -23.574)" fill="#d4a373"/>
  </g>
</svg>
